<?xml version="1.0" encoding="UTF-8"?><svg id="logo" xmlns="http://www.w3.org/2000/svg" viewBox="0 0 140 120"><defs><style>.cls-1{fill:#006400;}</style></defs><path class="cls-1" d="m25.89,68.28c2.72.86,5.66-.15,8.28,1.21-1.57,1.94-4.2,1.47-6.48,2.94,1.46,1.62,2.12,3.62,4.72,2.98,5.64-1.38,11.48-1.67,17.06-3.47,5.21-1.67,9.33-4.65,13.09-8.72,4.63-5.01,5.98-4.66,9.52,1,3.02,4.82,5.39,9.94,6.58,16.38-2.54-1.16-4.52-2.07-6.94-3.18-1.05,10.78-4.06,20.41-12.86,27.22,4.81-8.56,7.63-17.61,7.05-27.89C55.13,109.11,32.05,121.63,0,119.83c7.25-5.29,13.12-11.59,17.19-20.73-2.85.92-4.83,1.56-7.47,2.41,3.16-11.24,1.81-22.62,3.89-33.67,3.6-19.15,17.68-34.35,35.16-37.6,6.38-1.19,12.78-.85,20.07,1.15-14.73,6.39-40.86,28.07-42.95,36.88Z"/><path class="cls-1" d="m73.57,40.52c6.72,1.36,12.04-1.21,17.96-2.25,1.79-.31,3.59-.63,5.38-.95.45-.05.89-.09,1.34-.14-.14.37-.29.74-.43,1.1-4.33,7.29-12.83,5.09-19.02,8.43,5.4-.17,9.91,1.88,14.01,4.84,7.43,5.36,10.33,13.26,11.61,22.03,1.31,9.03-.07,17.95-1.51,27.74,7.87-4.71,13.25-10.45,14.23-18.78,2.09-17.84-7.3-29.77-21.36-38.93,3.6-2.88,6.57-5.66,8.77-9.53-5.15-1.27-9.58.55-15.54,1.1,16.87-12.47,34.22-21.46,50.99-31.5-15.37,4.63-43.23,22.58-57.82,28.97-.19-.45-.39-.9-.58-1.35,6.31-5.23,48.16-29.61,47.67-30.06-30.4,8.69-98.67,60.9-96.68,62.92,1.83-1.21,4.49-1.52,5.98-1.01,4.98-6.07,29.4-23.79,34.99-22.65Z"/><path class="cls-1" d="m62.98,48.03c-1.39,4.7-2.59,9.43-8.87,9.27-1.3-.03-2.65,2.74-4,4.19-1.91,2.05-3.57,4.42-7.65,6.08,5.22-9.55,11.58-15.87,20.51-19.54Z"/><polygon class="cls-1" points="131.77 0 131.83 .46 131.61 .41 131.77 0"/></svg>